<svg width="32" height="32" viewBox="0 0 32 32" fill="none" xmlns="http://www.w3.org/2000/svg">
<rect x="20.0847" y="18.1993" width="6.66667" height="2.66667" transform="rotate(45 20.0847 18.1993)" fill="#808080"/>
<path fill-rule="evenodd" clip-rule="evenodd" d="M14.6667 20C17.6123 20 20.0001 17.6122 20.0001 14.6667C20.0001 11.7212 17.6123 9.33335 14.6667 9.33335C11.7212 9.33335 9.33341 11.7212 9.33341 14.6667C9.33341 17.6122 11.7212 20 14.6667 20ZM14.6667 22.6667C19.085 22.6667 22.6667 19.085 22.6667 14.6667C22.6667 10.2484 19.085 6.66669 14.6667 6.66669C10.2485 6.66669 6.66675 10.2484 6.66675 14.6667C6.66675 19.085 10.2485 22.6667 14.6667 22.6667Z" fill="#808080"/>
</svg>
