<svg width="32" height="32" viewBox="0 0 32 32" fill="none" xmlns="http://www.w3.org/2000/svg">
<path d="M11.6159 25.6001C13.4307 25.6129 15.2299 25.2648 16.909 24.5763C18.5881 23.8877 20.1136 22.8722 21.3968 21.589C22.6801 20.3057 23.6955 18.7802 24.3841 17.1011C25.0727 15.4221 25.4207 13.6229 25.4079 11.8081C25.4079 11.5948 25.4079 11.3921 25.4079 11.1788C26.3578 10.494 27.1778 9.64515 27.8293 8.6721C26.9458 9.06651 26.0068 9.32197 25.0453 9.42944C26.0573 8.82499 26.8154 7.87357 27.1786 6.7521C26.2297 7.31699 25.1905 7.71393 24.1066 7.92544C23.3725 7.1546 22.4059 6.64584 21.3549 6.47721C20.3038 6.30857 19.2265 6.48936 18.2881 6.99185C17.3498 7.49434 16.6021 8.29078 16.1599 9.25902C15.7177 10.2273 15.6053 11.3138 15.8399 12.3521C13.9101 12.2568 12.0219 11.7564 10.2981 10.8835C8.57433 10.0106 7.05354 8.78464 5.83461 7.28544C5.21344 8.35219 5.0221 9.61555 5.29953 10.8184C5.57696 12.0212 6.3023 13.0732 7.32794 13.7601C6.55816 13.7312 5.80576 13.523 5.13061 13.1521V13.2161C5.13309 14.3348 5.52196 15.4183 6.23142 16.2832C6.94087 17.1482 7.92735 17.7415 9.02394 17.9628C8.30727 18.1564 7.55613 18.1855 6.82661 18.0481C7.13775 19.0108 7.74198 19.8522 8.55479 20.4546C9.3676 21.0571 10.3484 21.3904 11.3599 21.4081C9.64382 22.7601 7.51789 23.4863 5.33327 23.4668C4.94957 23.4879 4.56498 23.4879 4.18127 23.4668C6.41472 24.8778 9.00618 25.6182 11.6479 25.6001" fill="#202020"/>
</svg>
