<svg width="32" height="32" viewBox="0 0 32 32" fill="none" xmlns="http://www.w3.org/2000/svg">
<path d="M18.1334 21.3866C18.7414 21.2373 19.2747 21.1306 19.808 20.9813C20.6981 20.7611 21.4989 20.2726 22.1019 19.5818C22.7049 18.8911 23.0808 18.0316 23.1787 17.12C23.3409 16.4776 23.3745 15.8095 23.2775 15.1542C23.1804 14.4988 22.9547 13.8691 22.6134 13.3013C22.4619 13.073 22.3582 12.8163 22.3087 12.5468C22.2592 12.2773 22.2649 12.0005 22.3254 11.7333C22.3447 11.0877 22.2802 10.4423 22.1334 9.81329C22.1197 9.7602 22.0937 9.71105 22.0577 9.66975C22.0216 9.62846 21.9764 9.59616 21.9256 9.57544C21.8748 9.55472 21.8199 9.54615 21.7652 9.5504C21.7106 9.55466 21.6577 9.57163 21.6107 9.59996C20.8197 9.88392 20.0435 10.2079 19.2854 10.5706C19.0459 10.7168 18.7585 10.7628 18.4854 10.6986C16.8231 10.304 15.0916 10.304 13.4294 10.6986C13.2041 10.7208 12.9789 10.656 12.8 10.5173C12.0863 10.059 11.2887 9.74722 10.4534 9.59996C10.3974 9.57844 10.3373 9.56996 10.2776 9.57515C10.2178 9.58034 10.1601 9.59906 10.1087 9.62991C10.0573 9.66075 10.0136 9.7029 9.98089 9.75316C9.9482 9.80342 9.92739 9.86046 9.92005 9.91996C9.65408 10.6923 9.60974 11.5237 9.79205 12.32C9.81685 12.4052 9.82397 12.4945 9.81297 12.5826C9.80196 12.6706 9.77306 12.7555 9.72805 12.832C9.26237 13.4542 8.94288 14.1734 8.7933 14.936C8.64372 15.6987 8.6679 16.4853 8.86405 17.2373C9.33338 19.8826 10.9974 20.9066 13.3014 21.2906C13.472 21.2906 13.632 21.3546 13.7814 21.3866C13.5894 21.8666 13.44 22.3146 13.248 22.7413C13.1627 22.8907 13.0264 23.0043 12.864 23.0613C12.3429 23.2759 11.7627 23.2994 11.226 23.1276C10.6892 22.9559 10.2304 22.5999 9.93071 22.1226C9.66459 21.7188 9.3371 21.3589 8.96005 21.056C8.76328 20.8944 8.52146 20.7974 8.26758 20.7783C8.01369 20.7593 7.76009 20.8189 7.54138 20.9493C7.71205 21.1306 7.84005 21.2586 7.94671 21.3973C8.42483 21.8104 8.82573 22.3052 9.13071 22.8586C9.71738 24.4906 11.264 24.736 12.6294 24.5546L13.1414 24.4906C13.1414 25.28 13.1414 26.0373 13.1414 26.784C13.1414 27.1466 12.6827 27.2853 12.2454 27.1253C10.759 26.6238 9.39572 25.8132 8.24538 24.7466C7.1003 23.7075 6.1781 22.4467 5.53464 21.0407C4.89118 19.6346 4.53986 18.1126 4.50197 16.5668C4.46407 15.0209 4.74038 13.4835 5.31417 12.0476C5.88795 10.6117 6.74727 9.30729 7.84005 8.21329C9.60562 6.36322 11.9654 5.19276 14.5067 4.90662C16.2461 4.63692 18.0247 4.7866 19.6945 5.34321C21.3643 5.89982 22.877 6.84724 24.1067 8.10662C25.5025 9.41154 26.5323 11.0592 27.0937 12.8856C27.6551 14.7121 27.7286 16.6537 27.3067 18.5173C26.9711 20.3292 26.194 22.0305 25.0442 23.4705C23.8944 24.9105 22.4074 26.0449 20.7147 26.7733C20.441 26.9009 20.1595 27.0113 19.872 27.104C19.296 27.3173 18.9334 27.104 18.9227 26.4533C18.9227 25.4613 18.9227 24.48 18.9227 23.488C18.9299 22.7138 18.6485 21.9646 18.1334 21.3866V21.3866Z" fill="#202020"/>
</svg>
