<svg width="32" height="32" viewBox="0 0 32 32" fill="none" xmlns="http://www.w3.org/2000/svg">
<path d="M22.6 5H9.4C6.98 5 5 6.98 5 9.4V22.6C5 25.02 6.98 27 9.4 27H22.6C25.02 27 27 25.02 27 22.6V9.4C27 6.98 25.02 5 22.6 5ZM12.3975 22.49C11.49 22.49 10.61 22.49 9.7025 22.49C9.7025 19.135 9.7025 15.7983 9.7025 12.4433C10.6008 12.4433 11.4808 12.4433 12.3975 12.4433C12.3975 15.78 12.3975 19.1167 12.3975 22.49ZM11.05 11.2425C10.1517 11.2425 9.46417 10.555 9.455 9.6475C9.44583 8.74917 10.1792 8.00667 11.0683 8.01583C11.9392 8.03417 12.645 8.75833 12.6358 9.6475C12.6358 10.5642 11.9483 11.2425 11.05 11.2425ZM23.425 22.4808C22.4992 22.4808 21.61 22.4808 20.675 22.4808C20.675 21.8758 20.675 21.2892 20.675 20.7025C20.675 19.6208 20.6842 18.53 20.6658 17.4483C20.6567 17.0908 20.6108 16.715 20.4917 16.3758C20.2625 15.6883 19.795 15.2392 19.0342 15.175C18.2275 15.1108 17.6225 15.4683 17.2925 16.1833C17.1092 16.5867 17.0175 17.0633 17.0083 17.5033C16.9808 19.1533 16.9992 20.7942 16.9992 22.4808C16.0825 22.4808 15.1933 22.4808 14.2767 22.4808C14.2767 19.1533 14.2767 15.8167 14.2767 12.4525C15.175 12.4525 16.0642 12.4525 16.99 12.4525C16.99 12.9383 16.99 13.4058 16.99 13.9925C17.65 13.1217 18.4292 12.6633 19.4008 12.4892C21.3167 12.1408 23.0217 13.3325 23.315 15.285C23.3883 15.78 23.4067 16.2842 23.4067 16.7883C23.4342 18.6675 23.425 20.565 23.425 22.4808Z" fill="#202020"/>
</svg>
