<svg id="Layer_1" data-name="Layer 1" xmlns="http://www.w3.org/2000/svg" width="300" height="30" viewBox="0 0 300 30">
  <title>Logo</title>
  <g>
    <path d="M5.21,21.63V8h9.56v2.66H8.23v2.66h5.9V16H8.23V19h7v2.67Z"/>
    <path d="M21.41,21.63V8h3.08l3.24,5.32c.32.53.65,1.08,1,1.66s.59,1,.76,1.35l.26.47h0q-.12-2.68-.12-4.26V8h3v13.6h-3l-3.21-5.24c-.23-.37-.52-.86-.86-1.47l-.85-1.55-.35-.64h0q.15,2.27.15,4.44v4.46Z"/>
    <path d="M39.37,21.63V8h5.12a9.37,9.37,0,0,1,3.24.42,4.25,4.25,0,0,1,1.94,1.49,4,4,0,0,1,.7,2.42,4,4,0,0,1-.77,2.5,3.91,3.91,0,0,1-2.12,1.35l3.38,5.42H47.44l-3-5.05h-2v5.05Zm3-7.6h2.37a3.78,3.78,0,0,0,2-.36,1.44,1.44,0,0,0,.63-1.31,1.47,1.47,0,0,0-.63-1.31,3.78,3.78,0,0,0-2-.36H42.39Z"/>
    <path d="M56.51,21.63V8h3v13.6Z"/>
    <path d="M66.46,18.5a8.22,8.22,0,0,1-.78-3.67,8.12,8.12,0,0,1,.8-3.67,5.93,5.93,0,0,1,2.3-2.48,7.27,7.27,0,0,1,7,0A5.84,5.84,0,0,1,78,11.16a8.12,8.12,0,0,1,.8,3.67,8.24,8.24,0,0,1-.77,3.69l1.68,1.55-2.23,2.14-1.38-1.44a6.68,6.68,0,0,1-3.87,1.11,6.75,6.75,0,0,1-3.54-.9A5.68,5.68,0,0,1,66.46,18.5Zm3.17-7a5.36,5.36,0,0,0-.93,3.35,5.27,5.27,0,0,0,.92,3.32,3.54,3.54,0,0,0,5.28,0,5.27,5.27,0,0,0,.92-3.32,5.34,5.34,0,0,0-.94-3.35,3.45,3.45,0,0,0-5.25,0Z"/>
    <path d="M85,16.09V8h3v8a9.94,9.94,0,0,0,.06,1.28,3.71,3.71,0,0,0,.21.81,2.11,2.11,0,0,0,2.17,1.13,2.15,2.15,0,0,0,2.21-1.13,2.67,2.67,0,0,0,.19-.73c0-.29,0-.74,0-1.36V8h3v8.06a13.12,13.12,0,0,1-.15,2.28,4.49,4.49,0,0,1-.54,1.46c-.77,1.36-2.36,2.05-4.77,2.05s-4-.69-4.75-2.05a4.8,4.8,0,0,1-.55-1.47A13,13,0,0,1,85,16.09Z"/>
    <path d="M102.63,21.63V8h9.56v2.66h-6.54v2.66h5.91V16h-5.91V19h7v2.67Z"/>
    <path d="M127.73,21.63V8h5.12a9.48,9.48,0,0,1,3.25.42A4.27,4.27,0,0,1,138,9.94a4,4,0,0,1,.7,2.42,4,4,0,0,1-.77,2.5,3.88,3.88,0,0,1-2.12,1.35l3.38,5.42H135.8l-3-5.05h-2v5.05Zm3-7.6h2.37a3.78,3.78,0,0,0,2-.36,1.44,1.44,0,0,0,.63-1.31,1.47,1.47,0,0,0-.63-1.31,3.78,3.78,0,0,0-2-.36h-2.37Z"/>
    <path d="M144.69,16.09V8h3v8a9.94,9.94,0,0,0,.06,1.28,4.36,4.36,0,0,0,.2.81,2.13,2.13,0,0,0,2.18,1.13,2.15,2.15,0,0,0,2.21-1.13,2.36,2.36,0,0,0,.18-.73,11.47,11.47,0,0,0,.05-1.36V8h3v8.06a13.12,13.12,0,0,1-.15,2.28,4.49,4.49,0,0,1-.54,1.46c-.77,1.36-2.36,2.05-4.77,2.05s-4-.69-4.76-2.05a4.54,4.54,0,0,1-.54-1.47A11.91,11.91,0,0,1,144.69,16.09Z"/>
    <path d="M162.33,21.63V8h3v13.6Z"/>
    <path d="M171.39,21.63V19.21l6.45-8.48h-6.2V8h10.13v2.22l-6.49,8.68h6.51v2.7Z"/>
    <path d="M196.8,21.63V8h5a14.67,14.67,0,0,1,2,.12,5.3,5.3,0,0,1,1.64.5A4.86,4.86,0,0,1,207.76,11a8.38,8.38,0,0,1,.8,3.74,7.24,7.24,0,0,1-2,5.43,5.45,5.45,0,0,1-.72.6,4,4,0,0,1-.83.4c-.31.1-.59.19-.83.24a5.43,5.43,0,0,1-1,.13l-1,.05H196.8Zm3-2.86h1.38l1.31,0a4.22,4.22,0,0,0,1-.19,2,2,0,0,0,.85-.48,3.38,3.38,0,0,0,.78-1.31,5.73,5.73,0,0,0,.31-1.92,5.28,5.28,0,0,0-.33-1.91,3.22,3.22,0,0,0-.89-1.35A2.59,2.59,0,0,0,203,11a11.45,11.45,0,0,0-2-.14h-1.15Z"/>
    <path d="M214.48,16.09V8h3v8a9.94,9.94,0,0,0,.06,1.28,3.2,3.2,0,0,0,.2.81,2.13,2.13,0,0,0,2.18,1.13,2.16,2.16,0,0,0,2.21-1.13,2.36,2.36,0,0,0,.18-.73c0-.29,0-.74,0-1.36V8h3v8.06a13.12,13.12,0,0,1-.15,2.28,4.5,4.5,0,0,1-.55,1.46c-.76,1.36-2.35,2.05-4.76,2.05s-4-.69-4.76-2.05a4.54,4.54,0,0,1-.54-1.47A11.91,11.91,0,0,1,214.48,16.09Z"/>
    <path d="M232.11,21.63V8h5.12a9.45,9.45,0,0,1,3.24.42,4.3,4.3,0,0,1,1.94,1.49,4.09,4.09,0,0,1,.69,2.42,4,4,0,0,1-.76,2.5,3.94,3.94,0,0,1-2.13,1.35l3.38,5.42h-3.42l-3-5.05h-2v5.05Zm3-7.6h2.36a3.78,3.78,0,0,0,2-.36,1.43,1.43,0,0,0,.64-1.31,1.45,1.45,0,0,0-.64-1.31,3.78,3.78,0,0,0-2-.36h-2.36Z"/>
    <path d="M248.37,21.63,253,8h3.66l4.53,13.6h-3.23l-.8-2.69h-4.79l-.78,2.69Zm4.7-5.17h3.26l-1.12-3.85-.46-1.76h0c-.16.6-.33,1.19-.5,1.78Z"/>
    <path d="M266.12,21.63V19.21l6.44-8.48h-6.2V8H276.5v2.22L270,18.93h6.52v2.7Z"/>
    <path d="M282.41,18.5a8.22,8.22,0,0,1-.77-3.67,8,8,0,0,1,.8-3.67,5.87,5.87,0,0,1,2.3-2.48,7.25,7.25,0,0,1,7,0,5.87,5.87,0,0,1,2.3,2.48,8.12,8.12,0,0,1,.79,3.67,8.63,8.63,0,0,1-.44,2.86,6.36,6.36,0,0,1-1.26,2.22A5.65,5.65,0,0,1,291,21.36a7.35,7.35,0,0,1-2.8.52,6.8,6.8,0,0,1-3.54-.9A5.68,5.68,0,0,1,282.41,18.5Zm3.18-7a5.36,5.36,0,0,0-.93,3.35,5.27,5.27,0,0,0,.91,3.32,3.55,3.55,0,0,0,5.29,0,5.27,5.27,0,0,0,.91-3.32,5.4,5.4,0,0,0-.93-3.35,3.45,3.45,0,0,0-5.25,0Z"/>
  </g>
</svg>
