<svg id="Layer_1" data-name="Layer 1" xmlns="http://www.w3.org/2000/svg" width="30" height="30" viewBox="0 0 30 30">
  <title>Twitter</title>
  <path d="M10.89,24A12.84,12.84,0,0,0,23.82,11.07c0-.2,0-.39,0-.59a9.22,9.22,0,0,0,2.27-2.35,8.8,8.8,0,0,1-2.61.71,4.56,4.56,0,0,0,2-2.51,9,9,0,0,1-2.88,1.1,4.56,4.56,0,0,0-7.75,4.15A12.91,12.91,0,0,1,5.47,6.83a4.55,4.55,0,0,0,1.4,6.07,4.64,4.64,0,0,1-2.06-.57v.06a4.55,4.55,0,0,0,3.65,4.45,4.62,4.62,0,0,1-2.06.08,4.55,4.55,0,0,0,4.25,3.15A9,9,0,0,1,5,22,9.82,9.82,0,0,1,3.92,22a12.94,12.94,0,0,0,7,2"/>
</svg>
