<svg id="Layer_1" data-name="Layer 1" xmlns="http://www.w3.org/2000/svg" width="64" height="64" viewBox="0 0 64 64">
  <title>Favicon</title>
  <g>
    <path d="M21.91,48h7L20.84,35l.71-.2a8.88,8.88,0,0,0,4.88-3.09A9.06,9.06,0,0,0,28.18,26a9.51,9.51,0,0,0-1.59-5.59A10.14,10.14,0,0,0,22.11,17a22.64,22.64,0,0,0-7.68-1H2.52V48H8.76V35.71h5.75ZM8.76,21.38h6.32c2.44,0,4.1.32,5.07,1A4.09,4.09,0,0,1,21.94,26a4.09,4.09,0,0,1-1.79,3.65c-1,.65-2.63,1-5.07,1H8.76Z"/>
    <path d="M54.2,17.46a12.45,12.45,0,0,0-3.83-1.17A35.55,35.55,0,0,0,45.61,16H34V48H46.41c.63,0,1.46-.05,2.46-.11a13.49,13.49,0,0,0,2.33-.3,20.14,20.14,0,0,0,2-.58,8.08,8.08,0,0,0,1.89-.91,11.49,11.49,0,0,0,1.67-1.39c3.14-3.06,4.74-7.37,4.74-12.83A20.29,20.29,0,0,0,59.59,23,11.42,11.42,0,0,0,54.2,17.46Zm0,19.45a9.21,9.21,0,0,1-2,3.39,5.54,5.54,0,0,1-2.31,1.31,10.76,10.76,0,0,1-2.51.47c-.74,0-1.83.06-3.23.06h-3.9V21.86h3.35a28.13,28.13,0,0,1,5,.35,7.08,7.08,0,0,1,3.23,1.48,8.45,8.45,0,0,1,2.34,3.52A13.56,13.56,0,0,1,55,32.06,14.18,14.18,0,0,1,54.17,36.91Z"/>
  </g>
</svg>
