<svg id="Layer_1" data-name="Layer 1" xmlns="http://www.w3.org/2000/svg" width="30" height="30" viewBox="0 0 30 30">
  <title>rd mvp website</title>
  <path d="M17,20.05c.57-.14,1.07-.24,1.57-.38a4.19,4.19,0,0,0,3.16-3.62,4.71,4.71,0,0,0-.53-3.58A1.9,1.9,0,0,1,20.93,11a7,7,0,0,0-.18-1.8A.33.33,0,0,0,20.26,9a23.26,23.26,0,0,0-2.18.91,1,1,0,0,1-.75.12,10.26,10.26,0,0,0-4.74,0A.83.83,0,0,1,12,9.86,6,6,0,0,0,9.8,9a.37.37,0,0,0-.5.3,4.1,4.1,0,0,0-.12,2.25.61.61,0,0,1-.06.48,4.85,4.85,0,0,0-.81,4.13c.44,2.48,2,3.44,4.16,3.8.16,0,.31.06.45.09-.18.45-.32.87-.5,1.27a.67.67,0,0,1-.36.3,2.24,2.24,0,0,1-2.75-.88,4.36,4.36,0,0,0-.91-1,1.16,1.16,0,0,0-1.33-.1c.16.17.28.29.38.42a5,5,0,0,1,1.11,1.37c.55,1.53,2,1.76,3.28,1.59l.48-.06c0,.74,0,1.45,0,2.15,0,.34-.43.47-.84.32A10.41,10.41,0,0,1,7.73,23.2,10.71,10.71,0,0,1,7.35,7.7,10.22,10.22,0,0,1,13.6,4.6a10.36,10.36,0,0,1,9,3,10.26,10.26,0,0,1,3,9.76,10.51,10.51,0,0,1-6.18,7.74,6.82,6.82,0,0,1-.79.31c-.54.2-.88,0-.89-.61,0-.93,0-1.85,0-2.78A2.92,2.92,0,0,0,17,20.05Z"/>
</svg>
