<svg id="Layer_1" data-name="Layer 1" xmlns="http://www.w3.org/2000/svg" width="30" height="30" viewBox="0 0 30 30">
  <title>rd mvp website</title>
  <path d="M15,5c-2.71,0-3.05,0-4.12.06a7.13,7.13,0,0,0-2.42.47A5.06,5.06,0,0,0,5.53,8.45a7.49,7.49,0,0,0-.47,2.43C5,11.94,5,12.29,5,15s0,3.06.06,4.12a7.49,7.49,0,0,0,.47,2.43,5.08,5.08,0,0,0,2.92,2.92,7.23,7.23,0,0,0,2.43.47c1.06,0,1.4.06,4.12.06s3.06,0,4.12-.06a7.23,7.23,0,0,0,2.43-.47,5.12,5.12,0,0,0,2.92-2.92,7.49,7.49,0,0,0,.47-2.43c0-1.06.06-1.4.06-4.12s0-3.05-.06-4.12a7.49,7.49,0,0,0-.47-2.43,5.08,5.08,0,0,0-2.92-2.92,7.48,7.48,0,0,0-2.42-.47C18.06,5,17.72,5,15,5Zm-.89,1.8H15c2.67,0,3,0,4.05.06a5.59,5.59,0,0,1,1.85.34A3.06,3.06,0,0,1,22.05,8,3.14,3.14,0,0,1,22.8,9.1,5.41,5.41,0,0,1,23.14,11c.05,1.06.06,1.36.06,4s0,3-.06,4a5.47,5.47,0,0,1-.34,1.86,3.31,3.31,0,0,1-1.9,1.89,5.57,5.57,0,0,1-1.85.35c-1.07.05-1.38.06-4.05.06s-3,0-4-.06a5.66,5.66,0,0,1-1.86-.35,3.25,3.25,0,0,1-1.89-1.9A5.57,5.57,0,0,1,6.86,19C6.81,18,6.8,17.67,6.8,15s0-3,.06-4A5.58,5.58,0,0,1,7.21,9.1,3,3,0,0,1,8,8,3.23,3.23,0,0,1,9.1,7.2,5.41,5.41,0,0,1,11,6.86c.92-.05,1.28-.06,3.15-.06Zm6.23,1.67a1.2,1.2,0,1,0,1.2,1.2h0A1.2,1.2,0,0,0,20.34,8.47ZM15,9.87A5.14,5.14,0,1,0,20.14,15h0A5.14,5.14,0,0,0,15,9.87Zm0,1.8A3.34,3.34,0,1,1,11.67,15,3.33,3.33,0,0,1,15,11.67Z"/>
</svg>
