<svg id="Layer_1" data-name="Layer 1" xmlns="http://www.w3.org/2000/svg" width="30" height="30" viewBox="0 0 30 30">
  <title>rd mvp website</title>
  <path d="M5,25V5H25V25Zm5.6-12.38c.12.22.19.32.25.43,1,2.26,2.06,4.52,3.11,6.78a.67.67,0,0,0,.38.32c.07,0,.25-.19.3-.32.69-1.71,1.36-3.43,2-5.15.25-.65.51-1.3.77-1.95.09,1.67,0,3.32.11,5a2,2,0,0,1-.8,1.87,4.59,4.59,0,0,0-.52.58h5.38l.05-.1c-.32-.32-.66-.63-1-1a1,1,0,0,1-.25-.56c0-2.43,0-4.85,0-7.28a1,1,0,0,1,.25-.56,7.28,7.28,0,0,1,.63-.61c.13-.13.24-.28.43-.51-1.32,0-2.5,0-3.68,0a.39.39,0,0,0-.27.22l-1.89,4.73c-.2.5-.41,1-.64,1.54a1.94,1.94,0,0,1-.13-.18c-.86-1.87-1.74-3.74-2.56-5.64a1,1,0,0,0-1.09-.7c-1,.06-2.07,0-3.2,0a5,5,0,0,0,.26.46q.45.57.93,1.11a1.19,1.19,0,0,1,.32.87q0,2.67,0,5.34a1.47,1.47,0,0,1-.41,1.15,10.72,10.72,0,0,0-.92,1.1,4.65,4.65,0,0,0-.32.56h4.1a4.17,4.17,0,0,0-.28-.45c-.36-.46-.76-.89-1.1-1.36a1.37,1.37,0,0,1-.27-.74c0-.88,0-1.76,0-2.63Z"/>
</svg>
